{
	"asset":{
		"generator":"Khronos glTF Blender I/O v3.5.30",
		"version":"2.0"
	},
	"scene":0,
	"scenes":[
		{
			"name":"Scene",
			"nodes":[
				1
			]
		}
	],
	"nodes":[
		{
			"mesh":0,
			"name":"polySurface36",
			"scale":[
				20.964984893798828,
				20.964982986450195,
				20.964984893798828
			]
		},
		{
			"children":[
				0
			],
			"name":"polySurface20",
			"scale":[
				0.004000000189989805,
				0.010401670821011066,
				0.004000000189989805
			]
		}
	],
	"materials":[
		{
			"doubleSided":true,
			"name":"lambert2",
			"pbrMetallicRoughness":{
				"baseColorFactor":[
					0.5,
					0.5,
					0.5,
					1
				],
				"metallicFactor":0,
				"roughnessFactor":0.5527864098548889
			}
		}
	],
	"meshes":[
		{
			"name":"Mesh",
			"primitives":[
				{
					"attributes":{
						"POSITION":0,
						"TEXCOORD_0":1,
						"NORMAL":2
					},
					"indices":3,
					"material":0
				}
			]
		}
	],
	"accessors":[
		{
			"bufferView":0,
			"componentType":5126,
			"count":1275,
			"max":[
				2.2991466522216797,
				0.28841471672058105,
				2.2946105003356934
			],
			"min":[
				-2.299147844314575,
				-0.28841567039489746,
				-2.2946105003356934
			],
			"type":"VEC3"
		},
		{
			"bufferView":1,
			"componentType":5126,
			"count":1275,
			"type":"VEC2"
		},
		{
			"bufferView":2,
			"componentType":5126,
			"count":1275,
			"type":"VEC3"
		},
		{
			"bufferView":3,
			"componentType":5123,
			"count":7500,
			"type":"SCALAR"
		}
	],
	"bufferViews":[
		{
			"buffer":0,
			"byteLength":15300,
			"byteOffset":0,
			"target":34962
		},
		{
			"buffer":0,
			"byteLength":10200,
			"byteOffset":15300,
			"target":34962
		},
		{
			"buffer":0,
			"byteLength":15300,
			"byteOffset":25500,
			"target":34962
		},
		{
			"buffer":0,
			"byteLength":15000,
			"byteOffset":40800,
			"target":34963
		}
	],
	"buffers":[
		{
			"byteLength":55800,
			"uri":"data:application/octet-stream;base64,"
		}
	]
}
